<mxfile host="Electron" agent="Mozilla/5.0 (Windows NT 10.0; Win64; x64) AppleWebKit/537.36 (KHTML, like Gecko) draw.io/26.0.9 Chrome/128.0.6613.186 Electron/32.2.5 Safari/537.36" version="26.0.9">
  <diagram name="Page-1" id="58cdce13-f638-feb5-8d6f-7d28b1aa9fa0">
    <mxGraphModel dx="548" dy="645" grid="1" gridSize="10" guides="1" tooltips="1" connect="1" arrows="1" fold="1" page="1" pageScale="1" pageWidth="1169" pageHeight="827" background="none" math="0" shadow="0">
      <root>
        <mxCell id="0" />
        <mxCell id="1" parent="0" />
        <mxCell id="zv3R7Xy3KTeV4-9RwRUA-2" value="" style="ellipse;html=1;shape=endState;fillColor=strokeColor;" vertex="1" parent="1">
          <mxGeometry x="860" y="395" width="30" height="30" as="geometry" />
        </mxCell>
        <mxCell id="zv3R7Xy3KTeV4-9RwRUA-49" style="edgeStyle=orthogonalEdgeStyle;rounded=0;orthogonalLoop=1;jettySize=auto;html=1;exitX=1;exitY=0.5;exitDx=0;exitDy=0;entryX=-0.003;entryY=0.87;entryDx=0;entryDy=0;entryPerimeter=0;" edge="1" parent="1" source="zv3R7Xy3KTeV4-9RwRUA-3" target="zv3R7Xy3KTeV4-9RwRUA-19">
          <mxGeometry relative="1" as="geometry" />
        </mxCell>
        <mxCell id="zv3R7Xy3KTeV4-9RwRUA-3" value="" style="ellipse;fillColor=strokeColor;html=1;" vertex="1" parent="1">
          <mxGeometry x="240" y="395" width="30" height="30" as="geometry" />
        </mxCell>
        <mxCell id="zv3R7Xy3KTeV4-9RwRUA-6" value="" style="fontStyle=1;align=center;verticalAlign=middle;childLayout=stackLayout;horizontal=1;horizontalStack=0;resizeParent=1;resizeParentMax=0;resizeLast=0;marginBottom=0;rounded=1;absoluteArcSize=1;arcSize=22;" vertex="1" parent="1">
          <mxGeometry x="590" y="360" width="200" height="100" as="geometry" />
        </mxCell>
        <mxCell id="zv3R7Xy3KTeV4-9RwRUA-7" value="State 2" style="html=1;align=center;spacing=0;verticalAlign=middle;strokeColor=none;fillColor=none;whiteSpace=wrap;" vertex="1" parent="zv3R7Xy3KTeV4-9RwRUA-6">
          <mxGeometry width="200" height="20" as="geometry" />
        </mxCell>
        <mxCell id="zv3R7Xy3KTeV4-9RwRUA-8" value="" style="line;strokeWidth=0.25;fillColor=none;align=left;verticalAlign=middle;spacingTop=-1;spacingLeft=3;spacingRight=3;rotatable=0;labelPosition=right;points=[];portConstraint=eastwest;" vertex="1" parent="zv3R7Xy3KTeV4-9RwRUA-6">
          <mxGeometry y="20" width="200" height="8" as="geometry" />
        </mxCell>
        <mxCell id="zv3R7Xy3KTeV4-9RwRUA-9" value="" style="html=1;align=left;spacing=0;spacingLeft=10;verticalAlign=middle;strokeColor=none;fillColor=none;whiteSpace=wrap;" vertex="1" parent="zv3R7Xy3KTeV4-9RwRUA-6">
          <mxGeometry y="28" width="200" height="10" as="geometry" />
        </mxCell>
        <mxCell id="zv3R7Xy3KTeV4-9RwRUA-10" value="entry / entryActivity" style="html=1;align=left;spacing=0;spacingLeft=10;verticalAlign=middle;strokeColor=none;fillColor=none;whiteSpace=wrap;" vertex="1" parent="zv3R7Xy3KTeV4-9RwRUA-6">
          <mxGeometry y="38" width="200" height="14" as="geometry" />
        </mxCell>
        <mxCell id="zv3R7Xy3KTeV4-9RwRUA-11" value="do / doActivity" style="html=1;align=left;spacing=0;spacingLeft=10;verticalAlign=middle;strokeColor=none;fillColor=none;whiteSpace=wrap;" vertex="1" parent="zv3R7Xy3KTeV4-9RwRUA-6">
          <mxGeometry y="52" width="200" height="14" as="geometry" />
        </mxCell>
        <mxCell id="zv3R7Xy3KTeV4-9RwRUA-12" value="exit / exitActivity" style="html=1;align=left;spacingLeft=10;spacing=0;verticalAlign=middle;strokeColor=none;fillColor=none;whiteSpace=wrap;" vertex="1" parent="zv3R7Xy3KTeV4-9RwRUA-6">
          <mxGeometry y="66" width="200" height="14" as="geometry" />
        </mxCell>
        <mxCell id="zv3R7Xy3KTeV4-9RwRUA-13" value="" style="html=1;align=left;spacing=0;spacingLeft=10;verticalAlign=middle;strokeColor=none;fillColor=none;whiteSpace=wrap;" vertex="1" parent="zv3R7Xy3KTeV4-9RwRUA-6">
          <mxGeometry y="80" width="200" height="20" as="geometry" />
        </mxCell>
        <mxCell id="zv3R7Xy3KTeV4-9RwRUA-15" value="" style="fontStyle=1;align=center;verticalAlign=middle;childLayout=stackLayout;horizontal=1;horizontalStack=0;resizeParent=1;resizeParentMax=0;resizeLast=0;marginBottom=0;rounded=1;absoluteArcSize=1;arcSize=22;" vertex="1" parent="1">
          <mxGeometry x="310" y="360" width="200" height="100" as="geometry" />
        </mxCell>
        <mxCell id="zv3R7Xy3KTeV4-9RwRUA-16" value="State 1" style="html=1;align=center;spacing=0;verticalAlign=middle;strokeColor=none;fillColor=none;whiteSpace=wrap;" vertex="1" parent="zv3R7Xy3KTeV4-9RwRUA-15">
          <mxGeometry width="200" height="20" as="geometry" />
        </mxCell>
        <mxCell id="zv3R7Xy3KTeV4-9RwRUA-17" value="" style="line;strokeWidth=0.25;fillColor=none;align=left;verticalAlign=middle;spacingTop=-1;spacingLeft=3;spacingRight=3;rotatable=0;labelPosition=right;points=[];portConstraint=eastwest;" vertex="1" parent="zv3R7Xy3KTeV4-9RwRUA-15">
          <mxGeometry y="20" width="200" height="8" as="geometry" />
        </mxCell>
        <mxCell id="zv3R7Xy3KTeV4-9RwRUA-18" value="" style="html=1;align=left;spacing=0;spacingLeft=10;verticalAlign=middle;strokeColor=none;fillColor=none;whiteSpace=wrap;" vertex="1" parent="zv3R7Xy3KTeV4-9RwRUA-15">
          <mxGeometry y="28" width="200" height="10" as="geometry" />
        </mxCell>
        <mxCell id="zv3R7Xy3KTeV4-9RwRUA-19" value="entry / entryActivity" style="html=1;align=left;spacing=0;spacingLeft=10;verticalAlign=middle;strokeColor=none;fillColor=none;whiteSpace=wrap;" vertex="1" parent="zv3R7Xy3KTeV4-9RwRUA-15">
          <mxGeometry y="38" width="200" height="14" as="geometry" />
        </mxCell>
        <mxCell id="zv3R7Xy3KTeV4-9RwRUA-20" value="do / doActivity" style="html=1;align=left;spacing=0;spacingLeft=10;verticalAlign=middle;strokeColor=none;fillColor=none;whiteSpace=wrap;" vertex="1" parent="zv3R7Xy3KTeV4-9RwRUA-15">
          <mxGeometry y="52" width="200" height="14" as="geometry" />
        </mxCell>
        <mxCell id="zv3R7Xy3KTeV4-9RwRUA-21" value="exit / exitActivity" style="html=1;align=left;spacingLeft=10;spacing=0;verticalAlign=middle;strokeColor=none;fillColor=none;whiteSpace=wrap;" vertex="1" parent="zv3R7Xy3KTeV4-9RwRUA-15">
          <mxGeometry y="66" width="200" height="14" as="geometry" />
        </mxCell>
        <mxCell id="zv3R7Xy3KTeV4-9RwRUA-22" value="" style="html=1;align=left;spacing=0;spacingLeft=10;verticalAlign=middle;strokeColor=none;fillColor=none;whiteSpace=wrap;" vertex="1" parent="zv3R7Xy3KTeV4-9RwRUA-15">
          <mxGeometry y="80" width="200" height="20" as="geometry" />
        </mxCell>
        <mxCell id="zv3R7Xy3KTeV4-9RwRUA-31" style="edgeStyle=orthogonalEdgeStyle;rounded=0;orthogonalLoop=1;jettySize=auto;html=1;exitX=0;exitY=0;exitDx=0;exitDy=0;entryX=1;entryY=0;entryDx=0;entryDy=0;" edge="1" parent="1" source="zv3R7Xy3KTeV4-9RwRUA-24" target="zv3R7Xy3KTeV4-9RwRUA-25">
          <mxGeometry relative="1" as="geometry" />
        </mxCell>
        <mxCell id="zv3R7Xy3KTeV4-9RwRUA-45" value="x2" style="edgeLabel;html=1;align=center;verticalAlign=middle;resizable=0;points=[];" vertex="1" connectable="0" parent="zv3R7Xy3KTeV4-9RwRUA-31">
          <mxGeometry x="-0.1284" y="1" relative="1" as="geometry">
            <mxPoint y="-10" as="offset" />
          </mxGeometry>
        </mxCell>
        <mxCell id="zv3R7Xy3KTeV4-9RwRUA-32" style="edgeStyle=orthogonalEdgeStyle;rounded=0;orthogonalLoop=1;jettySize=auto;html=1;exitX=1;exitY=0.5;exitDx=0;exitDy=0;entryX=0;entryY=0.5;entryDx=0;entryDy=0;" edge="1" parent="1" source="zv3R7Xy3KTeV4-9RwRUA-24" target="zv3R7Xy3KTeV4-9RwRUA-29">
          <mxGeometry relative="1" as="geometry" />
        </mxCell>
        <mxCell id="zv3R7Xy3KTeV4-9RwRUA-24" value="s2&lt;div&gt;y2&lt;/div&gt;" style="shape=ellipse;html=1;dashed=0;whiteSpace=wrap;aspect=fixed;perimeter=ellipsePerimeter;" vertex="1" parent="1">
          <mxGeometry x="590" y="182" width="60" height="60" as="geometry" />
        </mxCell>
        <mxCell id="zv3R7Xy3KTeV4-9RwRUA-30" style="edgeStyle=orthogonalEdgeStyle;rounded=0;orthogonalLoop=1;jettySize=auto;html=1;exitX=1;exitY=1;exitDx=0;exitDy=0;entryX=0;entryY=1;entryDx=0;entryDy=0;" edge="1" parent="1" source="zv3R7Xy3KTeV4-9RwRUA-25" target="zv3R7Xy3KTeV4-9RwRUA-24">
          <mxGeometry relative="1" as="geometry" />
        </mxCell>
        <mxCell id="zv3R7Xy3KTeV4-9RwRUA-46" value="x1" style="edgeLabel;html=1;align=center;verticalAlign=middle;resizable=0;points=[];" vertex="1" connectable="0" parent="zv3R7Xy3KTeV4-9RwRUA-30">
          <mxGeometry x="0.1068" relative="1" as="geometry">
            <mxPoint y="-11" as="offset" />
          </mxGeometry>
        </mxCell>
        <mxCell id="zv3R7Xy3KTeV4-9RwRUA-25" value="&lt;div&gt;s1&lt;/div&gt;&lt;sub&gt;&lt;span style=&quot;font-size: 12px;&quot;&gt;y&lt;/span&gt;1&lt;/sub&gt;" style="shape=ellipse;html=1;dashed=0;whiteSpace=wrap;aspect=fixed;perimeter=ellipsePerimeter;" vertex="1" parent="1">
          <mxGeometry x="450" y="182" width="60" height="60" as="geometry" />
        </mxCell>
        <mxCell id="zv3R7Xy3KTeV4-9RwRUA-29" value="" style="ellipse;shape=doubleEllipse;html=1;dashed=0;whiteSpace=wrap;aspect=fixed;" vertex="1" parent="1">
          <mxGeometry x="680" y="182" width="60" height="60" as="geometry" />
        </mxCell>
        <mxCell id="zv3R7Xy3KTeV4-9RwRUA-33" value="" style="endArrow=classic;html=1;rounded=0;entryX=0;entryY=0.5;entryDx=0;entryDy=0;startArrow=none;startFill=0;endFill=1;" edge="1" parent="1" target="zv3R7Xy3KTeV4-9RwRUA-25">
          <mxGeometry width="50" height="50" relative="1" as="geometry">
            <mxPoint x="380" y="172" as="sourcePoint" />
            <mxPoint x="430" y="192" as="targetPoint" />
            <Array as="points">
              <mxPoint x="420" y="202" />
              <mxPoint x="410" y="172" />
            </Array>
          </mxGeometry>
        </mxCell>
        <mxCell id="zv3R7Xy3KTeV4-9RwRUA-36" value="Start" style="text;html=1;align=center;verticalAlign=middle;resizable=0;points=[];autosize=1;strokeColor=none;fillColor=none;" vertex="1" parent="1">
          <mxGeometry x="355" y="180" width="50" height="30" as="geometry" />
        </mxCell>
        <mxCell id="zv3R7Xy3KTeV4-9RwRUA-37" value="Endzustand" style="text;html=1;align=center;verticalAlign=middle;resizable=0;points=[];autosize=1;strokeColor=none;fillColor=none;" vertex="1" parent="1">
          <mxGeometry x="665" y="150" width="90" height="30" as="geometry" />
        </mxCell>
        <mxCell id="zv3R7Xy3KTeV4-9RwRUA-38" value="Startzustand" style="text;html=1;align=center;verticalAlign=middle;resizable=0;points=[];autosize=1;strokeColor=none;fillColor=none;" vertex="1" parent="1">
          <mxGeometry x="210" y="425" width="90" height="30" as="geometry" />
        </mxCell>
        <mxCell id="zv3R7Xy3KTeV4-9RwRUA-43" value="" style="endArrow=none;html=1;rounded=0;exitX=0;exitY=0.5;exitDx=0;exitDy=0;entryX=1;entryY=0.5;entryDx=0;entryDy=0;" edge="1" parent="1" source="zv3R7Xy3KTeV4-9RwRUA-25" target="zv3R7Xy3KTeV4-9RwRUA-25">
          <mxGeometry width="50" height="50" relative="1" as="geometry">
            <mxPoint x="610" y="452" as="sourcePoint" />
            <mxPoint x="660" y="402" as="targetPoint" />
          </mxGeometry>
        </mxCell>
        <mxCell id="zv3R7Xy3KTeV4-9RwRUA-44" value="" style="endArrow=none;html=1;rounded=0;exitX=0;exitY=0.5;exitDx=0;exitDy=0;entryX=1;entryY=0.5;entryDx=0;entryDy=0;" edge="1" parent="1" source="zv3R7Xy3KTeV4-9RwRUA-24" target="zv3R7Xy3KTeV4-9RwRUA-24">
          <mxGeometry width="50" height="50" relative="1" as="geometry">
            <mxPoint x="460" y="222" as="sourcePoint" />
            <mxPoint x="520" y="222" as="targetPoint" />
          </mxGeometry>
        </mxCell>
        <mxCell id="zv3R7Xy3KTeV4-9RwRUA-47" value="&lt;b&gt;&lt;font style=&quot;font-size: 18px;&quot;&gt;(a) Einfach&lt;/font&gt;&lt;/b&gt;" style="text;html=1;align=center;verticalAlign=middle;whiteSpace=wrap;rounded=0;" vertex="1" parent="1">
          <mxGeometry x="525" y="100" width="60" height="30" as="geometry" />
        </mxCell>
        <mxCell id="zv3R7Xy3KTeV4-9RwRUA-48" value="&lt;b&gt;&lt;font style=&quot;font-size: 18px;&quot;&gt;(b) UML&lt;/font&gt;&lt;/b&gt;" style="text;html=1;align=center;verticalAlign=middle;whiteSpace=wrap;rounded=0;" vertex="1" parent="1">
          <mxGeometry x="525" y="310" width="60" height="30" as="geometry" />
        </mxCell>
        <mxCell id="zv3R7Xy3KTeV4-9RwRUA-50" style="edgeStyle=orthogonalEdgeStyle;rounded=0;orthogonalLoop=1;jettySize=auto;html=1;exitX=1;exitY=1;exitDx=0;exitDy=0;" edge="1" parent="1" source="zv3R7Xy3KTeV4-9RwRUA-16">
          <mxGeometry relative="1" as="geometry">
            <mxPoint x="590" y="390" as="targetPoint" />
            <Array as="points">
              <mxPoint x="510" y="390" />
              <mxPoint x="550" y="390" />
            </Array>
          </mxGeometry>
        </mxCell>
        <mxCell id="zv3R7Xy3KTeV4-9RwRUA-53" value="EV_2" style="edgeLabel;html=1;align=center;verticalAlign=middle;resizable=0;points=[];" vertex="1" connectable="0" parent="zv3R7Xy3KTeV4-9RwRUA-50">
          <mxGeometry x="0.0101" y="1" relative="1" as="geometry">
            <mxPoint x="5" y="-9" as="offset" />
          </mxGeometry>
        </mxCell>
        <mxCell id="zv3R7Xy3KTeV4-9RwRUA-51" style="edgeStyle=orthogonalEdgeStyle;rounded=0;orthogonalLoop=1;jettySize=auto;html=1;exitX=0;exitY=1;exitDx=0;exitDy=0;entryX=1;entryY=0;entryDx=0;entryDy=0;" edge="1" parent="1" source="zv3R7Xy3KTeV4-9RwRUA-12" target="zv3R7Xy3KTeV4-9RwRUA-22">
          <mxGeometry relative="1" as="geometry">
            <Array as="points">
              <mxPoint x="570" y="440" />
              <mxPoint x="570" y="440" />
            </Array>
          </mxGeometry>
        </mxCell>
        <mxCell id="zv3R7Xy3KTeV4-9RwRUA-54" value="EV_1" style="edgeLabel;html=1;align=center;verticalAlign=middle;resizable=0;points=[];" vertex="1" connectable="0" parent="zv3R7Xy3KTeV4-9RwRUA-51">
          <mxGeometry x="-0.1033" y="-1" relative="1" as="geometry">
            <mxPoint x="-4" y="-9" as="offset" />
          </mxGeometry>
        </mxCell>
        <mxCell id="zv3R7Xy3KTeV4-9RwRUA-52" style="edgeStyle=orthogonalEdgeStyle;rounded=0;orthogonalLoop=1;jettySize=auto;html=1;exitX=1;exitY=0;exitDx=0;exitDy=0;entryX=0;entryY=0.5;entryDx=0;entryDy=0;" edge="1" parent="1" source="zv3R7Xy3KTeV4-9RwRUA-11" target="zv3R7Xy3KTeV4-9RwRUA-2">
          <mxGeometry relative="1" as="geometry">
            <Array as="points">
              <mxPoint x="790" y="410" />
            </Array>
          </mxGeometry>
        </mxCell>
        <mxCell id="zv3R7Xy3KTeV4-9RwRUA-55" value="EV_FINISH" style="edgeLabel;html=1;align=center;verticalAlign=middle;resizable=0;points=[];" vertex="1" connectable="0" parent="zv3R7Xy3KTeV4-9RwRUA-52">
          <mxGeometry x="-0.1295" y="1" relative="1" as="geometry">
            <mxPoint x="1" y="-14" as="offset" />
          </mxGeometry>
        </mxCell>
        <mxCell id="zv3R7Xy3KTeV4-9RwRUA-56" value="Endzustand" style="text;html=1;align=center;verticalAlign=middle;resizable=0;points=[];autosize=1;strokeColor=none;fillColor=none;" vertex="1" parent="1">
          <mxGeometry x="830" y="425" width="90" height="30" as="geometry" />
        </mxCell>
      </root>
    </mxGraphModel>
  </diagram>
</mxfile>
